<svg xmlns="http://www.w3.org/2000/svg" xmlns:xlink="http://www.w3.org/1999/xlink" contentStyleType="text/css" data-diagram-type="DESCRIPTION" height="299px" preserveAspectRatio="none" style="width:1061px;height:299px;background:#FFFFFF;" version="1.1" viewBox="0 0 1061 299" width="1061px" zoomAndPan="magnify"><defs/><g><!--cluster Aplicaci?n del Ahorcado--><g class="cluster" data-entity="Aplicaci&#243;n del Ahorcado" data-source-line="6" data-uid="ent0003" id="cluster_Aplicaci&#243;n del Ahorcado"><rect fill="none" height="219" rx="2.5" ry="2.5" style="stroke:#181818;stroke-width:1;" width="205" x="342" y="47.5"/><text fill="#000000" font-family="sans-serif" font-size="14" font-weight="bold" lengthAdjust="spacing" textLength="189.6563" x="349.6719" y="62.4951">Aplicaci&#243;n del Ahorcado</text></g><!--entity UC1--><g class="entity" data-entity="UC1" data-source-line="7" data-uid="ent0004" id="entity_UC1"><ellipse cx="444.2695" cy="235.3539" fill="#F1F1F1" rx="62.2695" ry="14.8539" style="stroke:#181818;stroke-width:0.5;"/><text fill="#000000" font-family="sans-serif" font-size="14" lengthAdjust="spacing" textLength="86.0918" x="401.2236" y="240.0023">Iniciar juego</text></g><!--entity UC2--><g class="entity" data-entity="UC2" data-source-line="8" data-uid="ent0005" id="entity_UC2"><ellipse cx="444.6336" cy="100.3267" fill="#F1F1F1" rx="74.6336" ry="17.3267" style="stroke:#181818;stroke-width:0.5;"/><text fill="#000000" font-family="sans-serif" font-size="14" lengthAdjust="spacing" textLength="117.8379" x="385.7146" y="104.9752">Seleccionar letra</text></g><!--entity UC3--><g class="entity" data-entity="UC3" data-source-line="9" data-uid="ent0006" id="entity_UC3"><ellipse cx="444.6361" cy="169.7272" fill="#F1F1F1" rx="69.1361" ry="16.2272" style="stroke:#181818;stroke-width:0.5;"/><text fill="#000000" font-family="sans-serif" font-size="14" lengthAdjust="spacing" textLength="104.1934" x="392.5395" y="174.3757">Reiniciar juego</text></g><!--entity Jugador--><g class="entity" data-entity="Jugador" data-source-line="4" data-uid="ent0002" id="entity_Jugador"><ellipse cx="125.8379" cy="119" fill="#F1F1F1" rx="8" ry="8" style="stroke:#181818;stroke-width:0.5;"/><path d="M125.8379,127 L125.8379,154 M112.8379,135 L138.8379,135 M125.8379,154 L112.8379,169 M125.8379,154 L138.8379,169" fill="none" style="stroke:#181818;stroke-width:0.5;"/><text fill="#000000" font-family="sans-serif" font-size="14" lengthAdjust="spacing" textLength="53.6758" x="99" y="183.4951">Jugador</text></g><g class="entity" data-entity="GMN10" data-source-line="18" data-uid="ent0011" id="entity_GMN10"><path d="M643,50 L643,96.5 L519.23,100.5 L643,104.5 L643,150.7969 A0,0 0 0 0 643,150.7969 L1054.4063,150.7969 A0,0 0 0 0 1054.4063,150.7969 L1054.4063,60 L1044.4063,50 L643,50 A0,0 0 0 0 643,50" fill="#FEFFDD" style="stroke:#181818;stroke-width:0.5;"/><path d="M1044.4063,50 L1044.4063,60 L1054.4063,60 L1044.4063,50" fill="#FEFFDD" style="stroke:#181818;stroke-width:0.5;"/><text fill="#000000" font-family="sans-serif" font-size="13" lengthAdjust="spacing" textLength="143.1396" x="649" y="67.0669">Si la letra es correcta:</text><text fill="#000000" font-family="sans-serif" font-size="13" lengthAdjust="spacing" textLength="144.0347" x="657.2646" y="82.1997">&#8226; Revelar posici&#243;n(es)</text><text fill="#000000" font-family="sans-serif" font-size="13" lengthAdjust="spacing" textLength="354.1611" x="657.2646" y="97.3325">&#8226; Verificar si palabra completa &#8594; mensaje "&#161;Ganaste!"</text><text fill="#000000" font-family="sans-serif" font-size="13" lengthAdjust="spacing" textLength="154.9907" x="649" y="112.4653">Si la letra es incorrecta:</text><text fill="#000000" font-family="sans-serif" font-size="13" lengthAdjust="spacing" textLength="201.1953" x="657.2646" y="127.5981">&#8226; Avanza imagen del ahorcado</text><text fill="#000000" font-family="sans-serif" font-size="13" lengthAdjust="spacing" textLength="382.1416" x="657.2646" y="142.731">&#8226; Si alcanza l&#237;mite &#8594; mensaje "&#161;Perdiste!" y revela palabra</text></g><g class="entity" data-entity="GMN13" data-source-line="27" data-uid="ent0014" id="entity_GMN13"><path d="M6,222 L6,292.5313 A0,0 0 0 0 6,292.5313 L245.5435,292.5313 A0,0 0 0 0 245.5435,292.5313 L245.5435,253.21 L384.21,239.62 L245.5435,245.21 L245.5435,232 L235.5435,222 L6,222 A0,0 0 0 0 6,222" fill="#FEFFDD" style="stroke:#181818;stroke-width:0.5;"/><path d="M235.5435,222 L235.5435,232 L245.5435,232 L235.5435,222" fill="#FEFFDD" style="stroke:#181818;stroke-width:0.5;"/><text fill="#000000" font-family="sans-serif" font-size="13" lengthAdjust="spacing" textLength="155.7905" x="12" y="239.0669">Muestra pantalla inicial:</text><text fill="#000000" font-family="sans-serif" font-size="13" lengthAdjust="spacing" textLength="210.2788" x="20.2646" y="254.1997">&#8226; Imagen del ahorcado estado 0</text><text fill="#000000" font-family="sans-serif" font-size="13" lengthAdjust="spacing" textLength="200.2114" x="20.2646" y="269.3325">&#8226; Guiones de palabra aleatoria</text><text fill="#000000" font-family="sans-serif" font-size="13" lengthAdjust="spacing" textLength="108.3672" x="20.2646" y="284.4653">&#8226; Teclado virtual</text></g><g class="entity" data-entity="GMN16" data-source-line="34" data-uid="ent0017" id="entity_GMN16"><path d="M306,6 L306,31.1328 L583.4009,31.1328 L583.4009,16 L573.4009,6 L306,6" fill="#FEFFDD" style="stroke:#181818;stroke-width:0.5;"/><path d="M573.4009,6 L573.4009,16 L583.4009,16 L573.4009,6" fill="#FEFFDD" style="stroke:#181818;stroke-width:1;"/><text fill="#000000" font-family="sans-serif" font-size="13" lengthAdjust="spacing" textLength="256.4009" x="312" y="23.0669">Reinicia el juego desde el estado inicial</text></g><!--link Jugador to UC1--><g class="link" data-entity-1="Jugador" data-entity-2="UC1" data-source-line="12" data-uid="lnk7" id="link_Jugador_UC1"><path d="M153.25,156.94 C188.02,167.99 251.32,187.7 306,202.5 C336.57,210.77 365.3939,217.7399 392.2839,223.9499" fill="none" id="Jugador-to-UC1" style="stroke:#181818;stroke-width:1;"/><polygon fill="#181818" points="398.13,225.3,390.2609,219.3774,393.2582,224.1749,388.4607,227.1723,398.13,225.3" style="stroke:#181818;stroke-width:1;"/></g><!--link Jugador to UC2--><g class="link" data-entity-1="Jugador" data-entity-2="UC2" data-source-line="13" data-uid="lnk8" id="link_Jugador_UC2"><path d="M153.17,144.53 C202.86,137 306.1579,121.3299 375.5679,110.7999" fill="none" id="Jugador-to-UC2" style="stroke:#181818;stroke-width:1;"/><polygon fill="#181818" points="381.5,109.9,372.0018,107.2952,376.5566,110.65,373.2018,115.2047,381.5,109.9" style="stroke:#181818;stroke-width:1;"/></g><!--link Jugador to UC3--><g class="link" data-entity-1="Jugador" data-entity-2="UC3" data-source-line="14" data-uid="lnk9" id="link_Jugador_UC3"><path d="M153.17,150.24 C202.04,153.48 302.5432,160.1421 372.0632,164.7621" fill="none" id="Jugador-to-UC3" style="stroke:#181818;stroke-width:1;"/><polygon fill="#181818" points="378.05,165.16,369.335,160.572,373.061,164.8285,368.8046,168.5544,378.05,165.16" style="stroke:#181818;stroke-width:1;"/></g><!--link UC3 to GMN16--><g class="link" data-entity-1="UC3" data-entity-2="GMN16" data-source-line="34" data-uid="lnk18" id="link_UC3_GMN16"><path d="M375.31,169.27 C337.96,164.93 295.58,152.08 276,118 C249.52,71.9 318.39,44.98 375.92,31.01" fill="none" id="UC3-GMN16" style="stroke:#181818;stroke-width:1;stroke-dasharray:7.0,7.0;"/></g><!--SRC=[RL91IWD14BpFAzfSr8EWvkP128AY88XHx-riP-tOExFCp0PK14y-m1_etPC_q9_u4discnKJJqDJtLtLLICqIP0y12vl4XGSo2RspiHRTZK6hA16UuibZTET46GONIba3Dha0vmq9HO-6DCZC1ZLmXOjVtquA4XWTEE3rQu1F1Y0ZMF7bZ70jA7IRm96k3pOoS2OXAnLTWM5Ki0EtCtWEV4_SqFpQ4od0RQszjjLV-lTfNfep3eSIZFrKTL56xXEFDF2-ig3ymdZdj67Ea_yf9CmPX2S2mFAxQ6zUKyXWE-dDpYd6OaAh7tazleDYfizUaM19-fBWCXggk2rxb7EMZSYV3-_G4KkubGD_7mzGeSnqTfWbPVTAlDeXkuUWIiDQkuvTfxtBRe5nRPjylLUiTwtn7b6eU2M5Euqw7pBGgSXLsHhDFRM6Sc_fZKc1tVQKCpYQdG9HQVcIScllkDLONfAoizsttJKQFIKG-djGI7KNyRODrsGbJmsuv0Qb6LXrpubNysb3NLeyMj0cTj_aoDN0Yqx_avhl-W7]--></g></svg>